<?xml version="1.0" standalone="no"?>
<!DOCTYPE svg PUBLIC "-//W3C//DTD SVG 20010904//EN"
 "http://www.w3.org/TR/2001/REC-SVG-20010904/DTD/svg10.dtd">
<svg version="1.0" xmlns="http://www.w3.org/2000/svg"
 width="291.000000pt" height="291.000000pt" viewBox="0 0 291.000000 291.000000"
 preserveAspectRatio="xMidYMid meet">
<metadata>
Created by potrace 1.11, written by Peter Selinger 2001-2013
</metadata>
<g transform="translate(0.000000,291.000000) scale(0.100000,-0.100000)"
fill="#000000" stroke="none">
<path d="M1466 2895 c6 -14 4 -16 -7 -9 -20 12 -39 14 -39 3 0 -4 -8 -6 -17
-3 -15 5 -16 4 -3 -6 13 -9 12 -10 -5 -8 -28 3 -75 -30 -68 -48 3 -8 12 -13
19 -10 8 3 13 1 11 -5 -1 -6 8 -17 20 -25 16 -12 23 -12 29 -3 4 8 3 9 -4 5
-7 -4 -12 -1 -12 8 0 9 3 15 8 14 4 0 15 2 26 7 12 5 21 3 27 -6 5 -8 9 -9 9
-4 0 6 20 10 45 11 24 0 42 -3 39 -7 -2 -4 7 -6 21 -3 18 3 23 1 19 -10 -6
-14 32 -43 50 -38 5 2 6 -4 3 -13 -4 -8 -2 -15 3 -15 6 0 10 9 10 19 0 11 5
23 11 26 6 4 8 14 4 22 -4 13 -3 14 10 3 14 -12 14 -15 -1 -31 -10 -11 -14
-22 -11 -26 4 -3 2 -12 -4 -19 -8 -10 -6 -12 10 -9 12 2 21 0 21 -6 0 -5 -7
-9 -15 -9 -8 0 -15 -4 -15 -10 0 -5 7 -6 17 -3 12 5 14 3 8 -7 -5 -9 -4 -11 4
-6 6 4 9 11 6 16 -3 4 2 11 11 14 8 3 12 2 9 -4 -3 -6 0 -10 7 -10 7 0 0 -9
-17 -20 -16 -11 -24 -20 -17 -20 8 0 10 -5 6 -12 -6 -10 -4 -10 7 0 22 21 33
13 13 -10 -10 -12 -13 -18 -5 -13 11 6 13 4 8 -8 -3 -9 -2 -19 4 -22 5 -4 7
-10 5 -14 -3 -4 0 -13 6 -21 8 -12 9 -11 4 3 -4 11 -2 17 5 15 6 -2 9 -6 7 -9
-2 -3 4 -14 12 -24 14 -17 13 -18 -3 -12 -14 5 -16 3 -8 -11 5 -9 10 -21 12
-27 2 -5 8 -9 15 -7 6 1 11 -5 11 -13 0 -9 -6 -14 -13 -11 -8 3 -10 -2 -7 -15
3 -12 11 -18 19 -15 7 3 16 1 19 -4 6 -9 -8 -14 -28 -11 -5 1 -6 -3 -2 -9 4
-7 12 -7 25 0 27 15 32 12 20 -10 -10 -18 -12 -18 -53 -4 -36 13 -98 20 -208
23 -23 1 -28 7 -39 49 -20 79 -61 174 -105 242 -41 63 -109 136 -123 134 -4
-1 -18 3 -32 8 -84 32 -189 15 -269 -43 -73 -54 -177 -227 -198 -329 -3 -18
-12 -34 -19 -37 -7 -2 -61 -5 -121 -6 l-108 -2 -33 -140 c-17 -77 -35 -153
-37 -169 -3 -16 -23 -104 -45 -195 -21 -91 -41 -177 -44 -191 -3 -14 -7 -34
-10 -45 -2 -11 -11 -51 -20 -90 -13 -62 -66 -291 -141 -615 -24 -105 -63 -278
-71 -315 -2 -11 -35 -155 -73 -320 -38 -165 -68 -302 -66 -304 11 -10 2515
-21 2778 -11 85 3 117 7 117 17 0 11 -49 190 -175 643 -67 238 -238 859 -306
1105 -51 187 -68 249 -95 338 l-16 53 -213 78 c-198 73 -235 92 -220 117 4 5
-2 6 -12 2 -16 -6 -16 -5 -5 9 9 12 10 22 4 35 -5 10 -8 26 -7 35 2 12 -2 15
-13 10 -15 -5 -16 -4 -2 14 14 18 14 18 -2 5 -17 -13 -26 -2 -11 13 11 11 12
36 2 36 -6 0 -8 4 -5 9 3 4 -1 16 -8 27 -8 10 -12 24 -9 31 3 7 0 13 -7 13 -6
0 -8 4 -5 10 4 6 -1 7 -12 3 -14 -5 -16 -3 -6 7 12 14 -2 60 -19 60 -5 0 -6 5
-3 10 3 6 1 10 -5 10 -6 0 -8 5 -4 11 3 6 -5 4 -18 -5 -24 -15 -38 -13 -38 6
0 5 4 7 8 4 12 -7 38 12 28 21 -5 4 -11 2 -13 -5 -3 -6 -9 -9 -15 -6 -6 4 -1
13 13 21 24 14 24 14 1 8 -12 -4 -22 -3 -21 2 3 19 -2 43 -8 42 -5 -1 -15 -1
-23 0 -13 1 -13 3 0 12 13 9 12 10 -2 5 -20 -6 -34 10 -16 18 7 3 3 3 -9 0
-19 -4 -22 -2 -16 13 6 14 2 13 -17 -5 -29 -27 -44 -29 -28 -3 7 11 16 17 22
14 5 -3 6 -1 2 5 -4 6 -14 8 -23 5 -12 -5 -14 -3 -8 8 8 12 6 12 -8 0 -11 -8
-17 -9 -17 -3 0 7 -7 9 -17 5 -10 -4 -14 -2 -10 4 3 5 0 10 -8 10 -8 0 -15 -5
-15 -10 0 -5 -7 -4 -15 3 -13 11 -14 10 -9 -5z m15 -15 c11 7 27 6 43 0 14 -5
26 -7 26 -4 0 3 5 2 10 -1 7 -5 8 -11 1 -19 -5 -6 -6 -17 -2 -24 6 -10 11 -10
21 3 17 20 27 19 33 -5 3 -11 1 -18 -3 -15 -4 3 -6 -4 -3 -15 3 -12 0 -20 -6
-20 -7 0 -11 8 -9 18 2 11 -3 17 -16 17 -11 0 -21 6 -24 13 -3 10 -7 10 -18 1
-11 -9 -18 -9 -29 1 -11 9 -15 9 -15 1 0 -7 -10 -9 -26 -7 -31 6 -44 16 -23
17 8 1 23 2 34 3 11 0 27 -2 37 -6 10 -5 18 -2 22 7 7 20 -10 28 -33 15 -25
-13 -34 -13 -25 1 3 6 -7 4 -24 -5 -16 -8 -32 -22 -36 -31 -3 -8 -9 -15 -13
-14 -21 4 -33 -2 -27 -13 4 -6 3 -8 -4 -4 -6 3 -9 15 -7 26 2 11 0 20 -6 20
-5 0 -9 -5 -9 -11 0 -5 -5 -7 -10 -4 -14 9 31 44 47 38 7 -3 22 2 35 11 14 10
26 12 32 6 6 -6 16 -6 27 0z m157 -78 c-7 -8 -12 -17 -10 -19 6 -9 1 -23 -8
-18 -7 4 -7 12 0 25 5 10 7 27 3 37 -6 16 -5 16 10 4 14 -11 15 -16 5 -29z
m22 -11 c0 -6 -4 -12 -8 -15 -5 -3 -9 1 -9 9 0 8 4 15 9 15 4 0 8 -4 8 -9z
m27 -36 c0 -8 -4 -15 -9 -15 -10 0 -11 14 -1 23 9 10 10 9 10 -8z m-462 -15
c14 -5 28 -16 31 -25 3 -8 10 -13 15 -10 7 5 29 -24 29 -38 0 -3 -28 -2 -49 2
-3 1 4 8 15 16 10 8 15 15 9 14 -22 -3 -36 2 -31 10 4 5 -1 8 -11 7 -16 -3
-25 -23 -24 -59 0 -9 -4 -15 -9 -12 -14 9 -23 -15 -10 -30 7 -9 8 -15 0 -20
-5 -3 -10 0 -11 7 0 7 -4 4 -8 -7 -6 -15 -1 -26 21 -47 17 -16 26 -32 22 -39
-4 -8 -12 -3 -21 14 -18 36 -51 23 -44 -17 1 -4 -4 -15 -11 -24 -10 -12 -10
-14 0 -8 11 6 17 -5 13 -26 -1 -8 15 -12 32 -9 4 0 7 -3 7 -8 0 -5 -68 -9
-151 -9 l-151 -1 6 27 c16 65 87 194 134 241 64 64 122 79 197 51z m544 -96
c-8 -9 -5 -16 11 -24 12 -6 19 -14 16 -17 -3 -4 -1 -12 5 -19 7 -8 6 -14 -2
-20 -8 -4 -9 -3 -5 4 5 8 1 10 -9 5 -13 -4 -14 -8 -4 -13 7 -5 19 -6 27 -2 9
3 13 1 9 -4 -3 -6 -2 -16 3 -24 5 -9 4 -20 -3 -28 -9 -11 -6 -18 12 -33 13
-11 20 -19 17 -19 -4 0 -2 -8 3 -18 6 -11 6 -24 1 -32 -6 -10 -4 -21 6 -32 15
-15 14 -16 -6 -11 -17 4 -21 11 -17 30 3 17 -2 27 -17 35 -11 7 -25 11 -31 10
-5 -1 -1 5 9 13 14 11 16 15 5 15 -11 0 -11 2 -1 9 11 7 10 10 -3 15 -9 3 -21
4 -25 1 -5 -3 -7 3 -6 12 2 10 9 18 17 18 8 0 13 -6 11 -13 -1 -8 2 -11 7 -8
16 10 5 41 -15 41 -10 0 -18 6 -17 12 2 7 -8 19 -20 28 -30 19 -28 53 4 71 13
7 18 13 11 14 -7 0 -10 4 -7 10 3 6 -1 7 -10 3 -12 -4 -14 -8 -4 -13 7 -5 1
-7 -15 -7 -24 2 -25 3 -9 15 10 7 17 22 15 35 -3 18 1 16 22 -12 19 -25 23
-38 15 -47z m-524 38 c-3 -3 0 -11 7 -19 6 -7 8 -16 4 -20 -3 -3 -6 -1 -6 5 0
7 -5 12 -11 12 -5 0 -3 -10 5 -22 20 -28 20 -39 1 -32 -8 4 -13 9 -10 14 2 4
-2 16 -9 26 -9 12 -11 25 -5 35 4 9 5 20 1 25 -4 5 1 2 11 -5 9 -8 15 -16 12
-19z m111 -84 c32 -63 73 -177 65 -182 -3 -2 -53 -3 -110 -2 -85 2 -105 6
-113 20 -5 9 -13 14 -18 11 -4 -3 -11 2 -14 11 -3 8 -2 12 4 9 6 -3 10 0 10 7
1 7 8 1 16 -14 16 -31 27 -38 17 -11 -4 9 -2 14 3 11 5 -4 10 5 10 18 1 13 -2
21 -7 18 -5 -3 -9 -13 -9 -22 -1 -16 -1 -16 -10 0 -7 10 -17 14 -32 10 -21 -5
-21 -5 -2 14 15 15 21 17 29 7 8 -9 16 -7 35 9 15 13 18 19 8 15 -12 -4 -15
-2 -11 8 3 8 9 13 13 10 5 -3 12 0 16 6 4 7 3 9 -4 5 -6 -3 -13 -2 -16 3 -4 5
3 12 14 16 11 4 18 11 15 16 -4 5 -1 9 6 9 9 0 9 3 0 14 -12 15 -5 46 11 46 6
0 5 -8 -3 -17 -7 -10 -2 -8 11 4 27 25 26 26 66 -49z m-133 29 c-2 -4 -3 -11
-3 -16 0 -5 -8 -18 -17 -27 -16 -16 -16 -17 -1 -12 10 4 19 1 22 -7 8 -22 -7
-25 -30 -6 -22 17 -22 18 -2 30 15 9 17 16 9 24 -16 16 -14 26 7 23 9 -2 16
-6 15 -9z m27 -37 c0 -5 -7 -10 -15 -10 -8 0 -15 5 -15 10 0 6 7 10 15 10 8 0
15 -4 15 -10z m-77 -70 c-3 -11 -9 -17 -15 -14 -5 3 -4 12 3 20 16 19 18 18
12 -6z"/>
<path d="M1400 2850 c-14 -10 -21 -22 -17 -26 4 -4 7 -1 7 7 0 10 2 11 8 2 5
-8 11 -3 19 13 6 13 10 24 10 24 -1 0 -13 -9 -27 -20z"/>
<path d="M1123 2447 c0 -8 6 -14 13 -14 7 0 10 6 7 14 -3 7 -8 13 -12 13 -4 0
-8 -6 -8 -13z"/>
<path d="M1734 2609 c0 -10 2 -16 5 -14 2 3 9 -3 16 -12 9 -13 14 -13 20 -3 5
9 4 11 -3 6 -7 -4 -12 -5 -12 -2 0 2 -3 13 -6 23 -6 15 -4 16 7 6 7 -7 18 -13
24 -13 11 1 -24 23 -40 26 -6 1 -11 -7 -11 -17z"/>
<path d="M1814 2450 c0 -10 2 -17 5 -15 2 3 10 -3 18 -13 10 -12 9 -8 -2 16
-18 37 -21 39 -21 12z"/>
</g>
</svg>
